<svg width="40" height="40" viewBox="0 0 40 40" fill="none" xmlns="http://www.w3.org/2000/svg">
<path d="M36.6667 26.2501C36.6667 25.1014 35.732 24.1667 34.5834 24.1667H13.75C12.6014 24.1667 11.6667 25.1014 11.6667 26.2501V29.0279C11.6667 29.5626 11.875 30.0473 12.2084 30.4167C11.875 30.7862 11.6667 31.2709 11.6667 31.8056V34.5834C11.6667 35.7321 12.6014 36.6667 13.75 36.6667H34.5834C35.732 36.6667 36.6667 35.7321 36.6667 34.5834V31.8056C36.6667 31.2709 36.4584 30.7862 36.125 30.4167C36.4584 30.0472 36.6667 29.5626 36.6667 29.0279V26.2501ZM35.2779 34.5834C35.2779 34.9667 34.9667 35.2779 34.5834 35.2779H13.75C13.3667 35.2779 13.0555 34.9667 13.0555 34.5834V31.8056C13.0555 31.4222 13.3667 31.1112 13.75 31.1112H34.5834C34.9667 31.1112 35.2779 31.4222 35.2779 31.8056V34.5834ZM35.2779 29.0279C35.2779 29.4112 34.9667 29.7223 34.5834 29.7223H13.75C13.3667 29.7223 13.0555 29.4112 13.0555 29.0279V26.2501C13.0555 25.8667 13.3667 25.5556 13.75 25.5556H34.5834C34.9667 25.5556 35.2779 25.8667 35.2779 26.2501V29.0279Z" fill="#212121"/>
<path d="M9.81798 34.2874C6.67498 33.3513 4.72218 31.8679 4.72218 30.4166V26.2429C5.75415 27.2096 7.32355 28.0429 9.38331 28.661C9.44998 28.6804 9.51798 28.6902 9.58331 28.6902C9.88198 28.6902 10.1583 28.4971 10.2486 28.1957C10.3597 27.8277 10.1514 27.4415 9.78331 27.3304C6.66111 26.3943 4.72218 24.9165 4.72218 23.4721V19.2804C6.94855 21.3665 11.6458 22.7776 17.2221 22.7776C22.7986 22.7776 27.4958 21.3664 29.7221 19.2804V22.0833C29.7221 22.4666 30.0333 22.7778 30.4166 22.7778C30.8 22.7778 31.1111 22.4666 31.1111 22.0833V9.58325C31.1111 6.07909 25.0097 3.33325 17.2222 3.33325C9.43473 3.33325 3.33331 6.07909 3.33331 9.58325V30.4166C3.33331 32.5708 5.55278 34.4653 9.42215 35.6179C9.48881 35.6374 9.55548 35.6471 9.62081 35.6471C9.92081 35.6471 10.1958 35.4527 10.2846 35.1513C10.3958 34.7833 10.1861 34.3971 9.81798 34.2874ZM17.2221 4.72212C24.5888 4.72212 29.7221 7.28462 29.7221 9.58325C29.7221 11.8819 24.5888 14.4444 17.2221 14.4444C9.85548 14.4444 4.72218 11.8819 4.72218 9.58325C4.72218 7.28462 9.85548 4.72212 17.2221 4.72212ZM4.72218 12.3361C6.94861 14.4221 11.6458 15.8333 17.2221 15.8333C22.7986 15.8333 27.4958 14.4221 29.7221 12.3361V16.5278C29.7221 18.8263 24.5888 21.3888 17.2221 21.3888C9.85548 21.3888 4.72218 18.8263 4.72218 16.5278V12.3361Z" fill="#212121"/>
<path d="M33.1945 32.5H27.6389C27.2556 32.5 26.9445 32.8112 26.9445 33.1945C26.9445 33.5778 27.2556 33.8889 27.6389 33.8889H33.1945C33.5779 33.8889 33.8889 33.5778 33.8889 33.1945C33.8889 32.8112 33.5779 32.5 33.1945 32.5Z" fill="#212121"/>
<path d="M15.1389 26.9446C14.7556 26.9446 14.4444 27.2557 14.4444 27.6391C14.4444 28.0224 14.7556 28.3335 15.1389 28.3335C15.5222 28.3335 15.8333 28.0223 15.8333 27.639C15.8333 27.2557 15.5222 26.9446 15.1389 26.9446Z" fill="#212121"/>
<path d="M15.1389 32.5C14.7556 32.5 14.4444 32.8112 14.4444 33.1945C14.4444 33.5778 14.7556 33.8889 15.1389 33.8889C15.5222 33.8889 15.8333 33.5778 15.8333 33.1945C15.8333 32.8112 15.5222 32.5 15.1389 32.5Z" fill="#212121"/>
<path d="M33.1945 26.9446H27.6389C27.2556 26.9446 26.9445 27.2557 26.9445 27.6391C26.9445 28.0224 27.2556 28.3335 27.6389 28.3335H33.1945C33.5779 28.3335 33.8889 28.0224 33.8889 27.6391C33.8889 27.2557 33.5779 26.9446 33.1945 26.9446Z" fill="#212121"/>
</svg>
