<svg width="48" height="48" viewBox="0 0 48 48" fill="none" xmlns="http://www.w3.org/2000/svg">
<path d="M44 31.5C44 30.1216 42.8784 29 41.5 29H16.5C15.1216 29 14 30.1216 14 31.5V34.8334C14 35.475 14.25 36.0567 14.65 36.5C14.25 36.9434 14 37.525 14 38.1666V41.5C14 42.8784 15.1216 44 16.5 44H41.5C42.8784 44 44 42.8784 44 41.5V38.1666C44 37.525 43.75 36.9433 43.35 36.5C43.75 36.0566 44 35.475 44 34.8334V31.5ZM42.3334 41.5C42.3334 41.96 41.96 42.3334 41.5 42.3334H16.5C16.04 42.3334 15.6666 41.96 15.6666 41.5V38.1666C15.6666 37.7066 16.04 37.3333 16.5 37.3333H41.5C41.96 37.3333 42.3334 37.7066 42.3334 38.1666V41.5ZM42.3334 34.8334C42.3334 35.2934 41.96 35.6667 41.5 35.6667H16.5C16.04 35.6667 15.6666 35.2934 15.6666 34.8334V31.5C15.6666 31.04 16.04 30.6666 16.5 30.6666H41.5C41.96 30.6666 42.3334 31.04 42.3334 31.5V34.8334Z" fill="black"/>
<path d="M11.7816 41.145C8.01 40.0216 5.66664 38.2416 5.66664 36.5V31.4916C6.905 32.6516 8.78828 33.6516 11.26 34.3933C11.34 34.4166 11.4216 34.4283 11.5 34.4283C11.8584 34.4283 12.19 34.1966 12.2984 33.8349C12.4317 33.3933 12.1817 32.9299 11.74 32.7966C7.99336 31.6732 5.66664 29.8999 5.66664 28.1666V23.1366C8.33828 25.6399 13.975 27.3332 20.6666 27.3332C27.3583 27.3332 32.995 25.6398 35.6666 23.1366V26.5C35.6666 26.96 36.04 27.3334 36.5 27.3334C36.96 27.3334 37.3334 26.96 37.3334 26.5V11.5C37.3334 7.295 30.0117 4 20.6667 4C11.3217 4 4 7.295 4 11.5V36.5C4 39.085 6.66336 41.3584 11.3066 42.7416C11.3866 42.765 11.4666 42.7766 11.545 42.7766C11.905 42.7766 12.235 42.5433 12.3416 42.1816C12.475 41.74 12.2234 41.2766 11.7816 41.145ZM20.6666 5.66664C29.5066 5.66664 35.6666 8.74164 35.6666 11.5C35.6666 14.2584 29.5066 17.3334 20.6666 17.3334C11.8266 17.3334 5.66664 14.2584 5.66664 11.5C5.66664 8.74164 11.8266 5.66664 20.6666 5.66664ZM5.66664 14.8034C8.33836 17.3066 13.975 19 20.6666 19C27.3583 19 32.995 17.3066 35.6666 14.8034V19.8334C35.6666 22.5917 29.5066 25.6667 20.6666 25.6667C11.8266 25.6667 5.66664 22.5917 5.66664 19.8334V14.8034Z" fill="black"/>
<path d="M39.8334 39H33.1667C32.7067 39 32.3334 39.3734 32.3334 39.8334C32.3334 40.2934 32.7067 40.6667 33.1667 40.6667H39.8334C40.2934 40.6667 40.6667 40.2934 40.6667 39.8334C40.6667 39.3734 40.2934 39 39.8334 39Z" fill="black"/>
<path d="M18.1667 32.3335C17.7067 32.3335 17.3333 32.7069 17.3333 33.1669C17.3333 33.6269 17.7067 34.0002 18.1667 34.0002C18.6267 34.0002 19 33.6268 19 33.1668C19 32.7068 18.6267 32.3335 18.1667 32.3335Z" fill="black"/>
<path d="M18.1667 39C17.7067 39 17.3333 39.3734 17.3333 39.8334C17.3333 40.2934 17.7067 40.6667 18.1667 40.6667C18.6267 40.6667 19 40.2934 19 39.8334C19 39.3734 18.6267 39 18.1667 39Z" fill="black"/>
<path d="M39.8334 32.3335H33.1667C32.7067 32.3335 32.3334 32.7069 32.3334 33.1669C32.3334 33.6269 32.7067 34.0002 33.1667 34.0002H39.8334C40.2934 34.0002 40.6667 33.6269 40.6667 33.1669C40.6667 32.7068 40.2934 32.3335 39.8334 32.3335Z" fill="black"/>
</svg>
